<?xml version="1.0" encoding="UTF-8"?>
<svg xmlns="http://www.w3.org/2000/svg" width="1535" height="1024" viewBox="0 0 1535 1024">
  
  <path d="M 565.0 686.0 L 565.0 692.0 L 971.0 692.0 L 971.0 686.0 Z M 770.0 140.0 L 677.0 303.0 L 567.0 490.0 L 555.0 513.0 L 986.0 513.0 L 853.0 284.0 L 849.0 279.0 L 845.0 270.0 L 826.0 239.0 L 822.0 230.0 Z M 843.0 463.0 L 844.0 462.0 L 932.0 462.0 L 948.0 490.0 L 947.0 491.0 L 860.0 491.0 Z M 775.0 393.0 L 780.0 398.0 L 804.0 439.0 L 803.0 441.0 L 749.0 441.0 L 748.0 440.0 L 759.0 419.0 Z M 655.0 489.0 L 688.0 435.0 L 713.0 391.0 L 740.0 390.0 L 749.0 391.0 L 750.0 394.0 L 710.0 462.0 L 817.0 462.0 L 834.0 490.0 L 833.0 491.0 L 656.0 491.0 Z M 687.0 391.0 L 688.0 393.0 L 664.0 432.0 L 632.0 489.0 L 630.0 491.0 L 593.0 491.0 L 592.0 489.0 L 648.0 393.0 L 650.0 391.0 L 665.0 391.0 L 666.0 390.0 Z M 805.0 342.0 L 809.0 344.0 L 822.0 367.0 L 821.0 370.0 L 791.0 370.0 L 790.0 367.0 Z M 744.0 340.0 L 746.0 341.0 L 762.0 368.0 L 761.0 370.0 L 728.0 370.0 L 727.0 369.0 Z M 833.0 295.0 L 839.0 302.0 L 876.0 367.0 L 919.0 438.0 L 918.0 441.0 L 830.0 441.0 L 801.0 393.0 L 802.0 391.0 L 859.0 390.0 L 819.0 322.0 L 820.0 316.0 Z M 742.0 234.0 L 757.0 257.0 L 760.0 264.0 L 791.0 315.0 L 793.0 322.0 L 781.0 342.0 L 775.0 349.0 L 744.0 297.0 L 701.0 370.0 L 664.0 370.0 L 663.0 368.0 L 696.0 313.0 L 740.0 235.0 Z M 769.0 185.0 L 772.0 186.0 L 793.0 224.0 L 821.0 270.0 L 821.0 273.0 L 806.0 298.0 L 804.0 297.0 L 801.0 290.0 L 754.0 212.0 Z" fill="#e30613" fill-rule="evenodd"/>
  <path d="M 1047.0 732.0 L 1045.0 733.0 L 1043.0 737.0 L 1044.0 738.0 L 1044.0 740.0 L 1047.0 743.0 L 1052.0 745.0 L 1055.0 748.0 L 1056.0 751.0 L 1053.0 754.0 L 1048.0 754.0 L 1044.0 751.0 L 1044.0 748.0 L 1043.0 749.0 L 1044.0 750.0 L 1044.0 753.0 L 1043.0 754.0 L 1054.0 755.0 L 1057.0 753.0 L 1058.0 751.0 L 1058.0 747.0 L 1056.0 745.0 L 1056.0 744.0 L 1050.0 741.0 L 1046.0 737.0 L 1046.0 735.0 L 1048.0 733.0 L 1053.0 733.0 L 1056.0 736.0 L 1056.0 738.0 L 1057.0 738.0 L 1057.0 732.0 L 1055.0 733.0 L 1053.0 732.0 Z M 1012.0 732.0 L 1012.0 737.0 L 1012.0 736.0 L 1015.0 733.0 L 1019.0 733.0 L 1020.0 734.0 L 1020.0 752.0 L 1016.0 755.0 L 1026.0 755.0 L 1022.0 752.0 L 1022.0 734.0 L 1023.0 733.0 L 1028.0 733.0 L 1030.0 735.0 L 1030.0 736.0 L 1030.0 732.0 Z M 976.0 732.0 L 979.0 733.0 L 981.0 736.0 L 981.0 752.0 L 978.0 755.0 L 984.0 755.0 L 984.0 754.0 L 982.0 754.0 L 981.0 753.0 L 981.0 739.0 L 982.0 738.0 L 983.0 738.0 L 986.0 741.0 L 986.0 742.0 L 997.0 755.0 L 997.0 734.0 L 999.0 732.0 L 1000.0 732.0 L 993.0 732.0 L 994.0 732.0 L 996.0 734.0 L 996.0 746.0 L 995.0 747.0 L 994.0 747.0 L 991.0 744.0 L 991.0 743.0 L 982.0 732.0 Z M 947.0 732.0 L 948.0 732.0 L 950.0 734.0 L 950.0 753.0 L 949.0 754.0 L 947.0 754.0 L 947.0 755.0 L 963.0 755.0 L 966.0 749.0 L 965.0 749.0 L 965.0 750.0 L 961.0 754.0 L 954.0 754.0 L 952.0 752.0 L 952.0 744.0 L 953.0 743.0 L 960.0 743.0 L 961.0 744.0 L 961.0 746.0 L 962.0 746.0 L 962.0 740.0 L 961.0 740.0 L 960.0 742.0 L 953.0 742.0 L 952.0 741.0 L 952.0 734.0 L 953.0 733.0 L 962.0 733.0 L 963.0 734.0 L 963.0 736.0 L 964.0 736.0 L 964.0 732.0 Z M 907.0 732.0 L 910.0 735.0 L 910.0 753.0 L 907.0 755.0 L 913.0 755.0 L 913.0 754.0 L 911.0 753.0 L 911.0 741.0 L 912.0 740.0 L 914.0 741.0 L 918.0 749.0 L 918.0 751.0 L 920.0 753.0 L 920.0 754.0 L 921.0 754.0 L 921.0 752.0 L 924.0 747.0 L 924.0 745.0 L 928.0 737.0 L 930.0 738.0 L 930.0 752.0 L 928.0 754.0 L 927.0 754.0 L 927.0 755.0 L 935.0 755.0 L 935.0 754.0 L 933.0 754.0 L 932.0 753.0 L 932.0 734.0 L 934.0 732.0 L 935.0 732.0 L 929.0 732.0 L 927.0 736.0 L 927.0 738.0 L 924.0 743.0 L 924.0 745.0 L 922.0 748.0 L 921.0 748.0 L 919.0 746.0 L 913.0 734.0 L 913.0 732.0 Z M 877.0 732.0 L 877.0 737.0 L 877.0 735.0 L 879.0 733.0 L 884.0 733.0 L 885.0 734.0 L 885.0 752.0 L 881.0 755.0 L 890.0 755.0 L 890.0 754.0 L 888.0 754.0 L 887.0 753.0 L 887.0 734.0 L 888.0 733.0 L 893.0 733.0 L 895.0 735.0 L 895.0 736.0 L 895.0 732.0 Z M 845.0 732.0 L 847.0 732.0 L 849.0 736.0 L 849.0 752.0 L 845.0 755.0 L 854.0 755.0 L 851.0 753.0 L 851.0 745.0 L 852.0 744.0 L 854.0 744.0 L 856.0 746.0 L 858.0 750.0 L 863.0 755.0 L 867.0 755.0 L 867.0 754.0 L 865.0 754.0 L 862.0 751.0 L 862.0 750.0 L 858.0 745.0 L 858.0 744.0 L 862.0 741.0 L 862.0 739.0 L 863.0 738.0 L 862.0 735.0 L 858.0 732.0 Z M 851.0 734.0 L 852.0 733.0 L 856.0 733.0 L 859.0 735.0 L 859.0 740.0 L 855.0 743.0 L 852.0 743.0 L 851.0 742.0 Z M 822.0 732.0 L 819.0 738.0 L 819.0 740.0 L 816.0 745.0 L 816.0 747.0 L 813.0 753.0 L 811.0 754.0 L 811.0 755.0 L 817.0 755.0 L 815.0 753.0 L 815.0 750.0 L 817.0 747.0 L 826.0 747.0 L 828.0 751.0 L 828.0 753.0 L 826.0 755.0 L 834.0 755.0 L 834.0 754.0 L 833.0 754.0 L 831.0 752.0 L 829.0 748.0 L 829.0 746.0 L 827.0 743.0 L 827.0 741.0 L 823.0 734.0 L 823.0 732.0 Z M 821.0 738.0 L 822.0 738.0 L 824.0 741.0 L 824.0 743.0 L 825.0 744.0 L 824.0 746.0 L 819.0 746.0 L 818.0 745.0 L 818.0 743.0 Z M 786.0 732.0 L 787.0 732.0 L 789.0 734.0 L 789.0 753.0 L 788.0 754.0 L 786.0 754.0 L 786.0 755.0 L 795.0 755.0 L 792.0 753.0 L 792.0 745.0 L 793.0 744.0 L 799.0 744.0 L 803.0 739.0 L 802.0 735.0 L 800.0 733.0 L 798.0 733.0 L 797.0 732.0 Z M 793.0 733.0 L 796.0 733.0 L 799.0 736.0 L 799.0 741.0 L 797.0 743.0 L 793.0 743.0 L 792.0 742.0 L 792.0 734.0 Z M 763.0 732.0 L 758.0 742.0 L 758.0 744.0 L 755.0 749.0 L 755.0 751.0 L 751.0 755.0 L 758.0 755.0 L 755.0 753.0 L 758.0 747.0 L 766.0 747.0 L 768.0 749.0 L 768.0 751.0 L 769.0 752.0 L 769.0 753.0 L 767.0 755.0 L 775.0 755.0 L 775.0 754.0 L 774.0 754.0 L 771.0 751.0 L 771.0 749.0 L 768.0 744.0 L 768.0 742.0 Z M 762.0 738.0 L 764.0 739.0 L 764.0 741.0 L 766.0 744.0 L 765.0 746.0 L 759.0 746.0 L 758.0 745.0 L 760.0 740.0 Z M 706.0 732.0 L 707.0 732.0 L 709.0 734.0 L 709.0 753.0 L 706.0 755.0 L 723.0 755.0 L 724.0 754.0 L 725.0 749.0 L 721.0 754.0 L 713.0 754.0 L 712.0 753.0 L 712.0 744.0 L 713.0 743.0 L 719.0 743.0 L 721.0 745.0 L 721.0 746.0 L 721.0 739.0 L 721.0 740.0 L 719.0 742.0 L 713.0 742.0 L 712.0 741.0 L 712.0 734.0 L 713.0 733.0 L 721.0 733.0 L 723.0 737.0 L 723.0 732.0 Z M 671.0 732.0 L 672.0 732.0 L 674.0 734.0 L 674.0 750.0 L 675.0 752.0 L 679.0 755.0 L 686.0 755.0 L 688.0 754.0 L 691.0 751.0 L 691.0 735.0 L 694.0 732.0 L 688.0 732.0 L 689.0 732.0 L 691.0 735.0 L 691.0 748.0 L 690.0 749.0 L 690.0 751.0 L 686.0 754.0 L 680.0 754.0 L 676.0 749.0 L 676.0 736.0 L 677.0 734.0 L 679.0 732.0 L 680.0 732.0 Z M 644.0 732.0 L 642.0 734.0 L 641.0 734.0 L 638.0 738.0 L 638.0 740.0 L 637.0 741.0 L 638.0 749.0 L 641.0 753.0 L 646.0 755.0 L 650.0 759.0 L 654.0 761.0 L 658.0 761.0 L 656.0 761.0 L 651.0 756.0 L 652.0 754.0 L 654.0 754.0 L 658.0 750.0 L 658.0 748.0 L 659.0 747.0 L 659.0 740.0 L 658.0 739.0 L 658.0 737.0 L 652.0 732.0 Z M 647.0 732.0 L 652.0 733.0 L 654.0 735.0 L 655.0 739.0 L 656.0 740.0 L 656.0 747.0 L 655.0 748.0 L 655.0 750.0 L 654.0 752.0 L 651.0 754.0 L 645.0 754.0 L 641.0 749.0 L 641.0 738.0 L 642.0 736.0 Z M 616.0 732.0 L 617.0 732.0 L 620.0 735.0 L 620.0 752.0 L 616.0 755.0 L 625.0 755.0 L 625.0 754.0 L 623.0 754.0 L 622.0 753.0 L 622.0 734.0 L 624.0 732.0 L 625.0 732.0 Z M 586.0 732.0 L 586.0 737.0 L 588.0 733.0 L 593.0 733.0 L 594.0 734.0 L 594.0 753.0 L 593.0 754.0 L 591.0 754.0 L 591.0 755.0 L 600.0 755.0 L 596.0 752.0 L 596.0 734.0 L 597.0 733.0 L 602.0 733.0 L 604.0 735.0 L 604.0 736.0 L 604.0 732.0 Z M 551.0 732.0 L 552.0 732.0 L 554.0 734.0 L 554.0 751.0 L 558.0 755.0 L 566.0 755.0 L 568.0 754.0 L 571.0 751.0 L 571.0 734.0 L 573.0 732.0 L 574.0 732.0 L 567.0 732.0 L 568.0 732.0 L 570.0 734.0 L 570.0 750.0 L 569.0 752.0 L 566.0 754.0 L 560.0 754.0 L 556.0 749.0 L 556.0 734.0 L 558.0 732.0 L 559.0 732.0 Z M 524.0 732.0 L 519.0 735.0 L 517.0 739.0 L 517.0 748.0 L 522.0 754.0 L 524.0 755.0 L 531.0 755.0 L 533.0 754.0 L 538.0 748.0 L 538.0 738.0 L 535.0 735.0 L 535.0 734.0 L 534.0 734.0 L 532.0 732.0 Z M 526.0 732.0 L 531.0 733.0 L 535.0 738.0 L 535.0 748.0 L 534.0 749.0 L 534.0 751.0 L 530.0 754.0 L 524.0 754.0 L 520.0 749.0 L 520.0 738.0 L 521.0 736.0 Z M 484.0 732.0 L 485.0 732.0 L 487.0 734.0 L 487.0 753.0 L 484.0 755.0 L 497.0 755.0 L 498.0 754.0 L 501.0 754.0 L 504.0 750.0 L 504.0 748.0 L 501.0 744.0 L 501.0 742.0 L 502.0 741.0 L 502.0 735.0 L 500.0 733.0 L 498.0 733.0 L 497.0 732.0 Z M 490.0 744.0 L 491.0 743.0 L 496.0 743.0 L 498.0 745.0 L 499.0 745.0 L 500.0 746.0 L 500.0 751.0 L 497.0 754.0 L 491.0 754.0 L 490.0 753.0 Z M 490.0 734.0 L 491.0 733.0 L 496.0 733.0 L 500.0 737.0 L 500.0 739.0 L 495.0 743.0 L 491.0 743.0 L 490.0 742.0 Z M 1005.0 573.0 L 1005.0 575.0 L 1010.0 575.0 L 1015.0 579.0 L 1015.0 640.0 L 1012.0 644.0 L 1005.0 645.0 L 1005.0 647.0 L 1065.0 647.0 L 1065.0 642.0 L 1066.0 641.0 L 1066.0 633.0 L 1067.0 632.0 L 1067.0 623.0 L 1065.0 624.0 L 1064.0 628.0 L 1060.0 635.0 L 1055.0 640.0 L 1046.0 644.0 L 1031.0 644.0 L 1030.0 643.0 L 1030.0 633.0 L 1029.0 632.0 L 1029.0 625.0 L 1030.0 624.0 L 1030.0 579.0 L 1035.0 575.0 L 1039.0 575.0 L 1040.0 573.0 Z M 777.0 573.0 L 777.0 575.0 L 782.0 575.0 L 784.0 576.0 L 786.0 578.0 L 787.0 580.0 L 787.0 583.0 L 788.0 584.0 L 788.0 638.0 L 787.0 639.0 L 787.0 641.0 L 784.0 644.0 L 777.0 645.0 L 777.0 647.0 L 812.0 647.0 L 812.0 645.0 L 808.0 645.0 L 807.0 644.0 L 805.0 644.0 L 802.0 641.0 L 802.0 617.0 L 803.0 616.0 L 816.0 616.0 L 817.0 617.0 L 818.0 616.0 L 823.0 616.0 L 824.0 615.0 L 827.0 615.0 L 830.0 613.0 L 832.0 613.0 L 834.0 611.0 L 835.0 611.0 L 841.0 605.0 L 842.0 601.0 L 843.0 600.0 L 843.0 589.0 L 842.0 588.0 L 842.0 586.0 L 840.0 582.0 L 836.0 578.0 L 832.0 576.0 L 830.0 576.0 L 827.0 574.0 L 823.0 574.0 L 822.0 573.0 Z M 803.0 575.0 L 812.0 575.0 L 813.0 576.0 L 819.0 577.0 L 824.0 582.0 L 826.0 586.0 L 826.0 589.0 L 827.0 590.0 L 827.0 598.0 L 826.0 599.0 L 825.0 605.0 L 820.0 611.0 L 814.0 614.0 L 806.0 614.0 L 802.0 612.0 L 802.0 576.0 Z M 618.0 573.0 L 617.0 574.0 L 617.0 596.0 L 619.0 596.0 L 621.0 587.0 L 623.0 583.0 L 628.0 578.0 L 635.0 575.0 L 642.0 575.0 L 643.0 576.0 L 643.0 640.0 L 640.0 644.0 L 632.0 645.0 L 632.0 647.0 L 669.0 647.0 L 669.0 645.0 L 664.0 645.0 L 663.0 644.0 L 661.0 644.0 L 658.0 641.0 L 658.0 576.0 L 659.0 575.0 L 665.0 575.0 L 666.0 576.0 L 669.0 576.0 L 671.0 577.0 L 677.0 583.0 L 680.0 590.0 L 681.0 596.0 L 683.0 596.0 L 683.0 573.0 Z M 528.0 573.0 L 528.0 575.0 L 534.0 576.0 L 538.0 580.0 L 538.0 585.0 L 539.0 586.0 L 539.0 635.0 L 538.0 636.0 L 538.0 639.0 L 537.0 641.0 L 534.0 644.0 L 528.0 645.0 L 528.0 647.0 L 554.0 647.0 L 554.0 645.0 L 550.0 645.0 L 549.0 644.0 L 547.0 644.0 L 542.0 638.0 L 542.0 588.0 L 544.0 587.0 L 551.0 595.0 L 551.0 596.0 L 557.0 602.0 L 557.0 603.0 L 561.0 607.0 L 561.0 608.0 L 572.0 620.0 L 572.0 621.0 L 591.0 642.0 L 591.0 643.0 L 596.0 648.0 L 599.0 648.0 L 599.0 584.0 L 600.0 583.0 L 600.0 580.0 L 601.0 578.0 L 605.0 575.0 L 609.0 575.0 L 609.0 573.0 L 584.0 573.0 L 584.0 575.0 L 589.0 575.0 L 591.0 576.0 L 595.0 580.0 L 595.0 582.0 L 596.0 583.0 L 596.0 621.0 L 595.0 622.0 L 594.0 622.0 L 592.0 620.0 L 592.0 619.0 L 576.0 601.0 L 576.0 600.0 L 571.0 595.0 L 571.0 594.0 L 565.0 588.0 L 565.0 587.0 L 559.0 581.0 L 559.0 580.0 L 553.0 574.0 L 553.0 573.0 Z M 1100.0 573.0 L 1090.0 578.0 L 1081.0 587.0 L 1080.0 590.0 L 1077.0 594.0 L 1076.0 600.0 L 1075.0 601.0 L 1075.0 604.0 L 1074.0 605.0 L 1075.0 619.0 L 1076.0 620.0 L 1077.0 625.0 L 1083.0 635.0 L 1088.0 640.0 L 1089.0 640.0 L 1094.0 644.0 L 1098.0 645.0 L 1101.0 647.0 L 1104.0 647.0 L 1105.0 648.0 L 1124.0 648.0 L 1125.0 647.0 L 1131.0 646.0 L 1141.0 640.0 L 1145.0 636.0 L 1145.0 635.0 L 1148.0 632.0 L 1151.0 627.0 L 1151.0 625.0 L 1154.0 618.0 L 1154.0 601.0 L 1153.0 600.0 L 1153.0 597.0 L 1148.0 587.0 L 1144.0 583.0 L 1144.0 582.0 L 1142.0 580.0 L 1132.0 574.0 L 1130.0 574.0 L 1126.0 572.0 L 1121.0 572.0 L 1120.0 571.0 L 1108.0 571.0 L 1107.0 572.0 Z M 1109.0 574.0 L 1118.0 574.0 L 1119.0 575.0 L 1122.0 575.0 L 1130.0 582.0 L 1134.0 589.0 L 1134.0 591.0 L 1137.0 598.0 L 1137.0 604.0 L 1138.0 605.0 L 1138.0 618.0 L 1137.0 619.0 L 1137.0 624.0 L 1136.0 625.0 L 1135.0 631.0 L 1131.0 638.0 L 1127.0 642.0 L 1122.0 645.0 L 1119.0 645.0 L 1118.0 646.0 L 1112.0 646.0 L 1111.0 645.0 L 1106.0 644.0 L 1099.0 638.0 L 1093.0 626.0 L 1093.0 622.0 L 1092.0 621.0 L 1092.0 617.0 L 1091.0 616.0 L 1091.0 605.0 L 1092.0 604.0 L 1092.0 597.0 L 1093.0 596.0 L 1094.0 590.0 L 1099.0 581.0 L 1103.0 577.0 Z M 944.0 573.0 L 933.0 579.0 L 925.0 587.0 L 921.0 595.0 L 920.0 601.0 L 919.0 602.0 L 919.0 618.0 L 920.0 619.0 L 921.0 625.0 L 924.0 631.0 L 932.0 640.0 L 943.0 646.0 L 945.0 646.0 L 949.0 648.0 L 966.0 648.0 L 967.0 647.0 L 971.0 647.0 L 972.0 646.0 L 974.0 646.0 L 978.0 644.0 L 980.0 642.0 L 983.0 641.0 L 992.0 632.0 L 996.0 624.0 L 997.0 618.0 L 998.0 617.0 L 998.0 613.0 L 999.0 612.0 L 999.0 607.0 L 998.0 606.0 L 998.0 601.0 L 997.0 600.0 L 997.0 597.0 L 995.0 594.0 L 995.0 592.0 L 993.0 590.0 L 992.0 587.0 L 983.0 578.0 L 976.0 574.0 L 974.0 574.0 L 970.0 572.0 L 964.0 572.0 L 963.0 571.0 L 952.0 571.0 L 951.0 572.0 L 947.0 572.0 L 946.0 573.0 Z M 954.0 574.0 L 963.0 574.0 L 969.0 577.0 L 974.0 582.0 L 978.0 589.0 L 978.0 591.0 L 981.0 598.0 L 981.0 604.0 L 982.0 605.0 L 982.0 615.0 L 981.0 616.0 L 981.0 622.0 L 980.0 623.0 L 980.0 625.0 L 979.0 626.0 L 979.0 628.0 L 976.0 635.0 L 973.0 638.0 L 973.0 639.0 L 967.0 644.0 L 965.0 645.0 L 962.0 645.0 L 961.0 646.0 L 956.0 646.0 L 955.0 645.0 L 950.0 644.0 L 943.0 638.0 L 939.0 631.0 L 939.0 629.0 L 937.0 625.0 L 936.0 614.0 L 935.0 613.0 L 935.0 602.0 L 936.0 601.0 L 936.0 595.0 L 937.0 594.0 L 937.0 591.0 L 941.0 583.0 L 947.0 577.0 Z M 875.0 571.0 L 873.0 575.0 L 873.0 577.0 L 871.0 580.0 L 871.0 582.0 L 866.0 591.0 L 866.0 593.0 L 862.0 600.0 L 862.0 602.0 L 859.0 607.0 L 859.0 609.0 L 855.0 616.0 L 855.0 618.0 L 851.0 625.0 L 851.0 627.0 L 848.0 632.0 L 848.0 634.0 L 845.0 640.0 L 842.0 643.0 L 838.0 645.0 L 836.0 645.0 L 836.0 647.0 L 858.0 647.0 L 858.0 645.0 L 855.0 645.0 L 850.0 641.0 L 851.0 635.0 L 853.0 632.0 L 855.0 625.0 L 858.0 621.0 L 883.0 621.0 L 886.0 625.0 L 886.0 627.0 L 888.0 630.0 L 889.0 635.0 L 891.0 638.0 L 891.0 643.0 L 887.0 645.0 L 884.0 645.0 L 884.0 647.0 L 917.0 647.0 L 917.0 645.0 L 914.0 645.0 L 912.0 644.0 L 908.0 640.0 L 904.0 632.0 L 904.0 630.0 L 900.0 623.0 L 900.0 621.0 L 897.0 616.0 L 897.0 614.0 L 892.0 605.0 L 892.0 603.0 L 889.0 598.0 L 889.0 596.0 L 886.0 591.0 L 886.0 589.0 L 882.0 582.0 L 882.0 580.0 L 879.0 575.0 L 879.0 573.0 L 878.0 571.0 Z M 870.0 592.0 L 872.0 593.0 L 875.0 599.0 L 875.0 601.0 L 878.0 606.0 L 878.0 608.0 L 881.0 613.0 L 881.0 616.0 L 880.0 617.0 L 860.0 617.0 L 859.0 616.0 Z M 716.0 573.0 L 706.0 578.0 L 697.0 587.0 L 697.0 588.0 L 695.0 590.0 L 695.0 592.0 L 693.0 595.0 L 693.0 597.0 L 691.0 601.0 L 691.0 608.0 L 690.0 609.0 L 691.0 618.0 L 692.0 619.0 L 694.0 627.0 L 699.0 635.0 L 704.0 640.0 L 712.0 645.0 L 714.0 645.0 L 718.0 647.0 L 721.0 647.0 L 722.0 648.0 L 739.0 648.0 L 740.0 647.0 L 746.0 646.0 L 755.0 641.0 L 763.0 633.0 L 766.0 628.0 L 766.0 626.0 L 769.0 620.0 L 769.0 616.0 L 770.0 615.0 L 770.0 602.0 L 769.0 601.0 L 768.0 595.0 L 763.0 586.0 L 756.0 579.0 L 745.0 573.0 L 742.0 573.0 L 741.0 572.0 L 736.0 572.0 L 735.0 571.0 L 726.0 571.0 L 725.0 572.0 L 720.0 572.0 L 719.0 573.0 Z M 725.0 574.0 L 733.0 574.0 L 734.0 575.0 L 737.0 575.0 L 742.0 578.0 L 745.0 581.0 L 751.0 592.0 L 751.0 595.0 L 753.0 599.0 L 753.0 605.0 L 754.0 606.0 L 754.0 617.0 L 753.0 618.0 L 753.0 623.0 L 752.0 624.0 L 751.0 630.0 L 749.0 634.0 L 741.0 643.0 L 737.0 645.0 L 734.0 645.0 L 733.0 646.0 L 725.0 645.0 L 718.0 641.0 L 715.0 638.0 L 710.0 629.0 L 710.0 626.0 L 708.0 622.0 L 708.0 615.0 L 707.0 614.0 L 707.0 602.0 L 708.0 601.0 L 708.0 595.0 L 709.0 594.0 L 710.0 589.0 L 713.0 583.0 L 720.0 576.0 L 724.0 575.0 Z M 483.0 571.0 L 481.0 571.0 L 477.0 579.0 L 477.0 581.0 L 470.0 595.0 L 470.0 597.0 L 463.0 611.0 L 463.0 613.0 L 459.0 620.0 L 459.0 622.0 L 455.0 629.0 L 455.0 631.0 L 453.0 634.0 L 452.0 638.0 L 450.0 640.0 L 450.0 641.0 L 446.0 644.0 L 441.0 645.0 L 441.0 647.0 L 465.0 647.0 L 465.0 645.0 L 461.0 645.0 L 460.0 644.0 L 458.0 644.0 L 456.0 642.0 L 456.0 636.0 L 459.0 631.0 L 459.0 629.0 L 463.0 621.0 L 488.0 621.0 L 491.0 625.0 L 491.0 627.0 L 493.0 630.0 L 493.0 632.0 L 495.0 635.0 L 495.0 637.0 L 497.0 642.0 L 495.0 644.0 L 489.0 645.0 L 489.0 647.0 L 521.0 647.0 L 522.0 646.0 L 521.0 645.0 L 517.0 644.0 L 513.0 640.0 L 512.0 636.0 L 508.0 629.0 L 508.0 627.0 L 504.0 620.0 L 502.0 613.0 L 498.0 606.0 L 496.0 599.0 L 492.0 592.0 L 492.0 590.0 L 488.0 583.0 L 486.0 576.0 Z M 477.0 593.0 L 481.0 601.0 L 483.0 608.0 L 486.0 613.0 L 486.0 616.0 L 485.0 617.0 L 466.0 617.0 L 465.0 615.0 L 472.0 601.0 L 472.0 599.0 L 474.0 595.0 L 476.0 593.0 Z M 431.0 572.0 L 429.0 572.0 L 429.0 573.0 L 427.0 575.0 L 422.0 575.0 L 419.0 573.0 L 417.0 573.0 L 416.0 572.0 L 412.0 572.0 L 411.0 571.0 L 401.0 571.0 L 395.0 574.0 L 393.0 574.0 L 385.0 581.0 L 382.0 587.0 L 382.0 598.0 L 385.0 604.0 L 393.0 611.0 L 407.0 618.0 L 409.0 618.0 L 414.0 621.0 L 420.0 627.0 L 420.0 637.0 L 418.0 641.0 L 412.0 645.0 L 410.0 645.0 L 409.0 646.0 L 403.0 646.0 L 402.0 645.0 L 400.0 645.0 L 393.0 641.0 L 389.0 637.0 L 384.0 628.0 L 383.0 621.0 L 381.0 621.0 L 381.0 647.0 L 382.0 648.0 L 386.0 644.0 L 389.0 644.0 L 390.0 645.0 L 392.0 645.0 L 396.0 647.0 L 399.0 647.0 L 400.0 648.0 L 415.0 648.0 L 416.0 647.0 L 419.0 647.0 L 425.0 644.0 L 431.0 639.0 L 434.0 633.0 L 434.0 630.0 L 435.0 629.0 L 435.0 623.0 L 434.0 622.0 L 434.0 619.0 L 432.0 615.0 L 425.0 608.0 L 400.0 595.0 L 397.0 592.0 L 395.0 588.0 L 395.0 584.0 L 396.0 583.0 L 396.0 581.0 L 401.0 575.0 L 403.0 575.0 L 404.0 574.0 L 413.0 574.0 L 419.0 577.0 L 423.0 581.0 L 427.0 588.0 L 429.0 596.0 L 431.0 596.0 Z" fill="#ffffff" fill-rule="evenodd"/>
</svg>